<svg width="53" height="53" viewBox="0 0 53 53" fill="none" xmlns="http://www.w3.org/2000/svg">
<g id="account_circle_FILL0_wght200_GRAD0_opsz24 1">
<path id="Vector" d="M13.6832 38.6119C15.5602 37.2614 17.552 36.1933 19.6584 35.4076C21.7648 34.622 24.0454 34.2292 26.5 34.2292C28.9546 34.2292 31.2352 34.622 33.3416 35.4076C35.448 36.1933 37.4398 37.2614 39.3168 38.6119C40.7749 37.1029 41.9477 35.3206 42.8353 33.2651C43.7229 31.2097 44.1667 28.9546 44.1667 26.5C44.1667 21.6049 42.446 17.4366 39.0047 13.9953C35.5634 10.554 31.3951 8.83333 26.5 8.83333C21.6049 8.83333 17.4366 10.554 13.9953 13.9953C10.554 17.4366 8.83333 21.6049 8.83333 26.5C8.83333 28.9546 9.27712 31.2097 10.1647 33.2651C11.0523 35.3206 12.2251 37.1029 13.6832 38.6119ZM26.5013 27.6042C24.6403 27.6042 23.0707 26.9655 21.7924 25.6881C20.5141 24.4106 19.875 22.8414 19.875 20.9804C19.875 19.1195 20.5137 17.5499 21.7911 16.2716C23.0686 14.9933 24.6378 14.3542 26.4987 14.3542C28.3597 14.3542 29.9293 14.9929 31.2076 16.2703C32.4859 17.5477 33.125 19.1169 33.125 20.9779C33.125 22.8389 32.4863 24.4085 31.2088 25.6867C29.9314 26.965 28.3622 27.6042 26.5013 27.6042ZM26.5 46.375C23.7282 46.375 21.1335 45.859 18.7156 44.8271C16.2978 43.7951 14.1942 42.3844 12.4049 40.5951C10.6156 38.8058 9.20492 36.7022 8.17293 34.2844C7.14098 31.8665 6.625 29.2718 6.625 26.5C6.625 23.7282 7.14098 21.1335 8.17293 18.7156C9.20492 16.2978 10.6156 14.1942 12.4049 12.4049C14.1942 10.6156 16.2978 9.20492 18.7156 8.17293C21.1335 7.14098 23.7282 6.625 26.5 6.625C29.2718 6.625 31.8665 7.14098 34.2844 8.17293C36.7022 9.20492 38.8058 10.6156 40.5951 12.4049C42.3844 14.1942 43.7951 16.2978 44.8271 18.7156C45.859 21.1335 46.375 23.7282 46.375 26.5C46.375 29.2718 45.859 31.8665 44.8271 34.2844C43.7951 36.7022 42.3844 38.8058 40.5951 40.5951C38.8058 42.3844 36.7022 43.7951 34.2844 44.8271C31.8665 45.859 29.2718 46.375 26.5 46.375ZM26.5 44.1667C28.5356 44.1667 30.5387 43.8106 32.5092 43.0986C34.4797 42.3866 36.1827 41.4119 37.6181 40.1747C36.1827 39.0224 34.5222 38.1115 32.6366 37.4419C30.751 36.7723 28.7055 36.4375 26.5 36.4375C24.2945 36.4375 22.2419 36.7652 20.3422 37.4206C18.4424 38.076 16.789 38.9941 15.3819 40.1747C16.8173 41.4119 18.5203 42.3866 20.4908 43.0986C22.4613 43.8106 24.4644 44.1667 26.5 44.1667ZM26.5 25.3958C27.7401 25.3958 28.7862 24.9697 29.6384 24.1175C30.4906 23.2653 30.9167 22.2192 30.9167 20.9792C30.9167 19.7391 30.4906 18.693 29.6384 17.8408C28.7862 16.9886 27.7401 16.5625 26.5 16.5625C25.2599 16.5625 24.2138 16.9886 23.3616 17.8408C22.5094 18.693 22.0833 19.7391 22.0833 20.9792C22.0833 22.2192 22.5094 23.2653 23.3616 24.1175C24.2138 24.9697 25.2599 25.3958 26.5 25.3958Z" fill="white"/>
</g>
</svg>
