<svg width="22" height="22" viewBox="0 0 22 22" fill="none" xmlns="http://www.w3.org/2000/svg">
<path d="M6.58424 11.3276C6.19532 11.6517 6.14278 12.2297 6.46688 12.6186C6.79098 13.0075 7.369 13.0601 7.75792 12.736L6.58424 11.3276ZM10.8171 8.99339L11.404 8.28919C11.064 8.0059 10.5702 8.0059 10.2303 8.28919L10.8171 8.99339ZM13.8763 12.736C14.2653 13.0601 14.8433 13.0075 15.1674 12.6186C15.4915 12.2297 15.4389 11.6517 15.05 11.3276L13.8763 12.736ZM7.75792 12.736L11.404 9.69759L10.2303 8.28919L6.58424 11.3276L7.75792 12.736ZM10.2303 9.69759L13.8763 12.736L15.05 11.3276L11.404 8.28919L10.2303 9.69759ZM3.66667 11C3.66667 6.94991 6.94991 3.66667 11 3.66667V1.83333C5.93739 1.83333 1.83333 5.93739 1.83333 11H3.66667ZM11 3.66667C15.0501 3.66667 18.3333 6.94991 18.3333 11H20.1667C20.1667 5.93739 16.0626 1.83333 11 1.83333V3.66667ZM18.3333 11C18.3333 15.0501 15.0501 18.3333 11 18.3333V20.1667C16.0626 20.1667 20.1667 16.0626 20.1667 11H18.3333ZM11 18.3333C6.94991 18.3333 3.66667 15.0501 3.66667 11H1.83333C1.83333 16.0626 5.93739 20.1667 11 20.1667V18.3333Z" fill="#0021CF"/>
</svg>
