<svg width="22" height="22" viewBox="0 0 22 22" fill="none" xmlns="http://www.w3.org/2000/svg">
<path d="M15.4158 10.6724C15.8047 10.3483 15.8572 9.77032 15.5331 9.3814C15.209 8.99248 14.631 8.93993 14.2421 9.26403L15.4158 10.6724ZM11.1829 13.0066L10.596 13.7108C10.936 13.9941 11.4298 13.9941 11.7697 13.7108L11.1829 13.0066ZM8.12366 9.26403C7.73474 8.93993 7.15673 8.99248 6.83263 9.3814C6.50853 9.77032 6.56107 10.3483 6.94999 10.6724L8.12366 9.26403ZM14.2421 9.26403L10.596 12.3024L11.7697 13.7108L15.4158 10.6724L14.2421 9.26403ZM11.7697 12.3024L8.12366 9.26403L6.94999 10.6724L10.596 13.7108L11.7697 12.3024ZM18.3333 11C18.3333 15.0501 15.0501 18.3333 11 18.3333V20.1667C16.0626 20.1667 20.1667 16.0626 20.1667 11H18.3333ZM11 18.3333C6.94991 18.3333 3.66667 15.0501 3.66667 11H1.83333C1.83333 16.0626 5.93739 20.1667 11 20.1667V18.3333ZM3.66667 11C3.66667 6.94991 6.94991 3.66667 11 3.66667V1.83333C5.93739 1.83333 1.83333 5.93739 1.83333 11H3.66667ZM11 3.66667C15.0501 3.66667 18.3333 6.94991 18.3333 11H20.1667C20.1667 5.93739 16.0626 1.83333 11 1.83333V3.66667Z" fill="#0021CF"/>
</svg>
