<svg width="50" height="50" viewBox="0 0 50 50" fill="none" xmlns="http://www.w3.org/2000/svg">
<rect x="2" y="2" width="46" height="46" rx="23" fill="#FFB4EF" fill-opacity="0.499076" stroke="#0021CF" stroke-width="3"/>
<path d="M15.1837 34.2953C16.6228 33.2599 18.1498 32.4411 19.7647 31.8387C21.3797 31.2364 23.1281 30.9352 25.01 30.9352C26.8918 30.9352 28.6402 31.2364 30.2552 31.8387C31.8701 32.4411 33.3971 33.2599 34.8362 34.2953C35.954 33.1384 36.8532 31.772 37.5337 30.1961C38.2142 28.6203 38.5544 26.8914 38.5544 25.0095C38.5544 21.2566 37.2352 18.061 34.5969 15.4226C31.9585 12.7843 28.7629 11.4651 25.01 11.4651C21.257 11.4651 18.0614 12.7843 15.423 15.4226C12.7847 18.061 11.4655 21.2566 11.4655 25.0095C11.4655 26.8914 11.8058 28.6203 12.4862 30.1961C13.1667 31.772 14.0659 33.1384 15.1837 34.2953ZM25.0109 25.8561C23.5842 25.8561 22.3808 25.3664 21.4008 24.387C20.4208 23.4077 19.9308 22.2046 19.9308 20.7779C19.9308 19.3511 20.4205 18.1478 21.3998 17.1678C22.3792 16.1877 23.5822 15.6977 25.009 15.6977C26.4357 15.6977 27.6391 16.1874 28.6191 17.1668C29.5991 18.1461 30.0891 19.3492 30.0891 20.7759C30.0891 22.2027 29.5994 23.406 28.6201 24.386C27.6407 25.366 26.4377 25.8561 25.0109 25.8561ZM25.01 40.247C22.8849 40.247 20.8956 39.8514 19.0419 39.0603C17.1883 38.2691 15.5755 37.1876 14.2037 35.8158C12.8319 34.444 11.7504 32.8312 10.9592 30.9776C10.168 29.1239 9.77246 27.1345 9.77246 25.0095C9.77246 22.8845 10.168 20.8952 10.9592 19.0415C11.7504 17.1878 12.8319 15.5751 14.2037 14.2033C15.5755 12.8315 17.1883 11.75 19.0419 10.9588C20.8956 10.1676 22.8849 9.77203 25.01 9.77203C27.135 9.77203 29.1243 10.1676 30.978 10.9588C32.8316 11.75 34.4444 12.8315 35.8162 14.2033C37.188 15.5751 38.2695 17.1878 39.0607 19.0415C39.8519 20.8952 40.2475 22.8845 40.2475 25.0095C40.2475 27.1345 39.8519 29.1239 39.0607 30.9776C38.2695 32.8312 37.188 34.444 35.8162 35.8158C34.4444 37.1876 32.8316 38.2691 30.978 39.0603C29.1243 39.8514 27.135 40.247 25.01 40.247ZM25.01 38.554C26.5706 38.554 28.1063 38.281 29.617 37.7351C31.1278 37.1892 32.4334 36.442 33.5339 35.4934C32.4334 34.61 31.1603 33.9116 29.7147 33.3983C28.2691 32.8849 26.7008 32.6283 25.01 32.6283C23.3191 32.6283 21.7454 32.8795 20.289 33.382C18.8325 33.8845 17.5648 34.5883 16.4861 35.4934C17.5865 36.442 18.8922 37.1892 20.4029 37.7351C21.9136 38.281 23.4493 38.554 25.01 38.554ZM25.01 24.163C25.9607 24.163 26.7627 23.8363 27.416 23.183C28.0694 22.5296 28.3961 21.7276 28.3961 20.7769C28.3961 19.8262 28.0694 19.0242 27.416 18.3708C26.7627 17.7175 25.9607 17.3908 25.01 17.3908C24.0593 17.3908 23.2572 17.7175 22.6039 18.3708C21.9505 19.0242 21.6238 19.8262 21.6238 20.7769C21.6238 21.7276 21.9505 22.5296 22.6039 23.183C23.2572 23.8363 24.0593 24.163 25.01 24.163Z" fill="white"/>
</svg>
