<svg width="200" height="200" viewBox="0 0 200 200" fill="none" xmlns="http://www.w3.org/2000/svg">
<g filter="url(#filter0_d_152_506)">
<rect x="6" y="2" width="187.905" height="187.905" rx="25" fill="#FFB4EF" fill-opacity="0.499076" stroke="#0021CF" stroke-width="3"/>
<path d="M59.8525 133.923C65.731 129.693 71.9687 126.349 78.5655 123.888C85.1623 121.428 92.3044 120.197 99.9917 120.197C107.679 120.197 114.821 121.428 121.418 123.888C128.015 126.349 134.252 129.693 140.131 133.923C144.697 129.197 148.37 123.615 151.15 117.178C153.93 110.741 155.319 103.679 155.319 95.9915C155.319 80.6611 149.931 67.6072 139.153 56.8299C128.376 46.0525 115.322 40.6638 99.9917 40.6638C84.6613 40.6638 71.6074 46.0525 60.8301 56.8299C50.0527 67.6072 44.664 80.6611 44.664 95.9915C44.664 103.679 46.0538 110.741 48.8335 117.178C51.6132 123.615 55.2862 129.197 59.8525 133.923ZM99.9956 99.4495C94.1676 99.4495 89.2519 97.4492 85.2487 93.4487C81.2454 89.448 79.2438 84.5336 79.2438 78.7056C79.2438 72.8775 81.2441 67.9619 85.2446 63.9587C89.2453 59.9554 94.1596 57.9537 99.9877 57.9537C105.816 57.9537 110.731 59.954 114.735 63.9547C118.738 67.9552 120.74 72.8695 120.74 78.6976C120.74 84.5257 118.739 89.4413 114.739 93.4445C110.738 97.4478 105.824 99.4495 99.9956 99.4495ZM99.9917 158.235C91.3112 158.235 83.185 156.619 75.6129 153.387C68.0409 150.155 61.453 145.738 55.8492 140.134C50.2455 134.53 45.8277 127.942 42.5958 120.37C39.364 112.798 37.748 104.672 37.748 95.9915C37.748 87.311 39.364 79.1848 42.5958 71.6127C45.8277 64.0407 50.2455 57.4528 55.8492 51.849C61.453 46.2453 68.0409 41.8276 75.6129 38.5956C83.185 35.3638 91.3112 33.7479 99.9917 33.7479C108.672 33.7479 116.798 35.3638 124.37 38.5956C131.942 41.8276 138.53 46.2453 144.134 51.849C149.738 57.4528 154.156 64.0407 157.388 71.6127C160.619 79.1848 162.235 87.311 162.235 95.9915C162.235 104.672 160.619 112.798 157.388 120.37C154.156 127.942 149.738 134.53 144.134 140.134C138.53 145.738 131.942 150.155 124.37 153.387C116.798 156.619 108.672 158.235 99.9917 158.235ZM99.9917 151.319C106.367 151.319 112.64 150.204 118.811 147.974C124.982 145.744 130.316 142.692 134.811 138.817C130.316 135.209 125.115 132.356 119.21 130.259C113.305 128.162 106.899 127.113 99.9917 127.113C93.0846 127.113 86.6563 128.14 80.7069 130.192C74.7573 132.245 69.5791 135.12 65.1724 138.817C69.6678 142.692 75.0011 145.744 81.1723 147.974C87.3434 150.204 93.6165 151.319 99.9917 151.319ZM99.9917 92.5335C103.875 92.5335 107.151 91.1991 109.82 88.5302C112.489 85.8613 113.824 82.5851 113.824 78.7016C113.824 74.8181 112.489 71.5418 109.82 68.873C107.151 66.2041 103.875 64.8697 99.9917 64.8697C96.1081 64.8697 92.8319 66.2041 90.1631 68.873C87.4942 71.5418 86.1598 74.8181 86.1598 78.7016C86.1598 82.5851 87.4942 85.8613 90.1631 88.5302C92.8319 91.1991 96.1081 92.5335 99.9917 92.5335Z" fill="white"/>
</g>
<defs>
<filter id="filter0_d_152_506" x="0.5" y="0.5" width="198.905" height="198.905" filterUnits="userSpaceOnUse" color-interpolation-filters="sRGB">
<feFlood flood-opacity="0" result="BackgroundImageFix"/>
<feColorMatrix in="SourceAlpha" type="matrix" values="0 0 0 0 0 0 0 0 0 0 0 0 0 0 0 0 0 0 127 0" result="hardAlpha"/>
<feOffset dy="4"/>
<feGaussianBlur stdDeviation="2"/>
<feComposite in2="hardAlpha" operator="out"/>
<feColorMatrix type="matrix" values="0 0 0 0 0 0 0 0 0 0 0 0 0 0 0 0 0 0 0.25 0"/>
<feBlend mode="normal" in2="BackgroundImageFix" result="effect1_dropShadow_152_506"/>
<feBlend mode="normal" in="SourceGraphic" in2="effect1_dropShadow_152_506" result="shape"/>
</filter>
</defs>
</svg>
