<svg width="36" height="36" viewBox="0 0 36 36" fill="none" xmlns="http://www.w3.org/2000/svg">
<rect x="1" y="1" width="34" height="34" rx="17" fill="#FFB4EF" fill-opacity="0.499076" stroke="#0021CF" stroke-width="1.14902"/>
<path d="M10.4537 25.1468C11.5174 24.3815 12.6461 23.7762 13.8397 23.331C15.0333 22.8858 16.3256 22.6632 17.7166 22.6632C19.1076 22.6632 20.3999 22.8858 21.5935 23.331C22.7871 23.7762 23.9158 24.3815 24.9795 25.1468C25.8057 24.2917 26.4703 23.2817 26.9733 22.1169C27.4762 20.9522 27.7277 19.6743 27.7277 18.2834C27.7277 15.5095 26.7527 13.1475 24.8026 11.1974C22.8525 9.2473 20.4905 8.27226 17.7166 8.27226C14.9427 8.27226 12.5807 9.2473 10.6306 11.1974C8.68053 13.1475 7.70549 15.5095 7.70549 18.2834C7.70549 19.6743 7.95697 20.9522 8.45992 22.1169C8.9629 23.2817 9.6275 24.2917 10.4537 25.1468ZM17.7173 18.9091C16.6628 18.9091 15.7733 18.5471 15.049 17.8233C14.3246 17.0994 13.9624 16.2102 13.9624 15.1556C13.9624 14.1011 14.3244 13.2116 15.0482 12.4873C15.7721 11.7629 16.6613 11.4007 17.7159 11.4007C18.7704 11.4007 19.6599 11.7627 20.3842 12.4866C21.1086 13.2104 21.4708 14.0996 21.4708 15.1542C21.4708 16.2087 21.1088 17.0982 20.3849 17.8225C19.6611 18.5469 18.7719 18.9091 17.7173 18.9091ZM17.7166 29.5459C16.1459 29.5459 14.6756 29.2535 13.3055 28.6687C11.9354 28.0839 10.7433 27.2846 9.72936 26.2706C8.71542 25.2567 7.91606 24.0646 7.33126 22.6945C6.74649 21.3244 6.4541 19.854 6.4541 18.2834C6.4541 16.7127 6.74649 15.2423 7.33126 13.8722C7.91606 12.5021 8.71542 11.3101 9.72936 10.2961C10.7433 9.2822 11.9354 8.48283 13.3055 7.89804C14.6756 7.31326 16.1459 7.02087 17.7166 7.02087C19.2873 7.02087 20.7576 7.31326 22.1277 7.89804C23.4979 8.48283 24.6899 9.2822 25.7038 10.2961C26.7178 11.3101 27.5171 12.5021 28.1019 13.8722C28.6867 15.2423 28.9791 16.7127 28.9791 18.2834C28.9791 19.854 28.6867 21.3244 28.1019 22.6945C27.5171 24.0646 26.7178 25.2567 25.7038 26.2706C24.6899 27.2846 23.4979 28.0839 22.1277 28.6687C20.7576 29.2535 19.2873 29.5459 17.7166 29.5459ZM17.7166 28.2945C18.8701 28.2945 20.0052 28.0927 21.1218 27.6893C22.2385 27.2858 23.2035 26.7335 24.0169 26.0324C23.2035 25.3794 22.2625 24.8632 21.194 24.4838C20.1255 24.1043 18.9664 23.9146 17.7166 23.9146C16.4668 23.9146 15.3037 24.1003 14.2272 24.4717C13.1506 24.8431 12.2137 25.3633 11.4163 26.0324C12.2297 26.7335 13.1947 27.2858 14.3114 27.6893C15.428 28.0927 16.5631 28.2945 17.7166 28.2945ZM17.7166 17.6577C18.4193 17.6577 19.0121 17.4162 19.495 16.9333C19.9779 16.4504 20.2194 15.8576 20.2194 15.1549C20.2194 14.4522 19.9779 13.8594 19.495 13.3765C19.0121 12.8936 18.4193 12.6521 17.7166 12.6521C17.0139 12.6521 16.4211 12.8936 15.9382 13.3765C15.4553 13.8594 15.2138 14.4522 15.2138 15.1549C15.2138 15.8576 15.4553 16.4504 15.9382 16.9333C16.4211 17.4162 17.0139 17.6577 17.7166 17.6577Z" fill="white"/>
</svg>
