<svg width="46" height="46" viewBox="0 0 46 46" fill="none" xmlns="http://www.w3.org/2000/svg">
<rect width="46" height="46" fill="#F5F5F5"/>
<g id="&#208;&#148;&#208;&#190; &#209;&#128;&#208;&#181;&#208;&#179;&#208;&#184;&#209;&#129;&#209;&#130;&#209;&#128;&#208;&#176;&#209;&#134;&#208;&#184;&#208;&#184;" clip-path="url(#clip0_0_1)">
<g id="header">
<rect id="Rectangle 1" x="-796" y="-34" width="1440" height="111.72" fill="white"/>
<g id="Group 20">
<rect id="Rectangle 20" x="-383.5" y="-5.5" width="435" height="57" rx="23.5" fill="white" stroke="#D9D9D9" stroke-width="3"/>
<g id="search_FILL0_wght200_GRAD0_opsz24 1">
<rect x="1.5" y="1.5" width="43" height="43" rx="16.5" fill="#0021CF"/>
<rect x="1.5" y="1.5" width="43" height="43" rx="16.5" stroke="#0021CF" stroke-width="3"/>
<path id="Vector" d="M34.3395 33.7333L26.1358 25.5297C25.4807 26.0873 24.7273 26.519 23.8757 26.8247C23.0241 27.1304 22.1683 27.2833 21.3083 27.2833C19.2098 27.2833 17.4338 26.5569 15.9803 25.1041C14.5268 23.6514 13.8 21.8764 13.8 19.7791C13.8 17.6817 14.5264 15.9053 15.9791 14.4499C17.4318 12.9944 19.2069 12.2667 21.3042 12.2667C23.4015 12.2667 25.1779 12.9934 26.6334 14.447C28.0888 15.9005 28.8166 17.6765 28.8166 19.775C28.8166 20.6854 28.6553 21.5664 28.3328 22.418C28.0103 23.2696 27.587 23.9977 27.063 24.6025L35.2667 32.8061L34.3395 33.7333ZM21.3083 25.9731C23.0468 25.9731 24.5144 25.3747 25.7112 24.1779C26.908 22.9811 27.5064 21.5134 27.5064 19.775C27.5064 18.0365 26.908 16.5688 25.7112 15.372C24.5144 14.1752 23.0468 13.5768 21.3083 13.5768C19.5698 13.5768 18.1022 14.1752 16.9054 15.372C15.7086 16.5688 15.1102 18.0365 15.1102 19.775C15.1102 21.5134 15.7086 22.9811 16.9054 24.1779C18.1022 25.3747 19.5698 25.9731 21.3083 25.9731Z" fill="white"/>
</g>
</g>
</g>
</g>
<defs>
<clipPath id="clip0_0_1">
<rect width="1440" height="2486" fill="white" transform="translate(-796 -34)"/>
</clipPath>
</defs>
</svg>
